PathFileType	4	(X/Y/Z)	Patient4_TMGait_0pt8_01_right_32.trc.trc
DataRate	CameraRate	NumFrames	NumMarkers	Units	OrigDataRate	OrigDataStartFrame	OrigNumFrames
86.956521739130	86.956521739130	5	33	mm	86.956521739130	71	       141
Frame#	Time	Sacral			L.Shoulder			Chest			R.Shoulder			Neck			R.ASIS			L.ASIS			R.Thigh.Superior			R.Thigh.Lateral			R.Thigh.Inferior			R.Patella			L.Thigh.Superior			L.Thigh.Lateral			L.Thigh.Inferior			L.Patella			L.Shank.Superior			L.Shank.Lateral			L.Shank.Inferior			R.Shank.Superior			R.Shank.Lateral			R.Shank.Inferior			R.Heel			R.Midfoot.Superior			R.Midfoot.Lateral			R.Toe			L.Heel			L.Midfoot.Lateral			L.Midfoot.Superior			L.Toe			L.Elbow			L.Wrist			R.Elbow			R.Wrist			
		X1	Y1	Z1	X2	Y2	Z2	X3	Y3	Z3	X4	Y4	Z4	X5	Y5	Z5	X6	Y6	Z6	X7	Y7	Z7	X8	Y8	Z8	X9	Y9	Z9	X10	Y10	Z10	X11	Y11	Z11	X12	Y12	Z12	X13	Y13	Z13	X14	Y14	Z14	X15	Y15	Z15	X16	Y16	Z16	X17	Y17	Z17	X18	Y18	Z18	X19	Y19	Z19	X20	Y20	Z20	X21	Y21	Z21	X22	Y22	Z22	X23	Y23	Z23	X24	Y24	Z24	X25	Y25	Z25	X26	Y26	Z26	X27	Y27	Z27	X28	Y28	Z28	X29	Y29	Z29	X30	Y30	Z30	X31	Y31	Z31	X32	Y32	Z32	X33	Y33	Z33	

71	36.605000000000	842.389396058796	994.829973945599	517.124943745310	986.762296773397	1422.620135642436	325.135959588963	1118.468449187967	1347.069491221808	461.288463854893	1071.547347991166	1418.445746638934	648.896919654720	1007.621808106232	1478.794430919041	481.405842812185	1076.898774805191	925.560721939831	606.581313572902	1033.773912887999	943.015005109795	334.074869860720	1060.799103048599	710.895025458399	580.444045159399	950.948687614471	622.889245366660	645.036599074571	1002.036247516230	554.785923285860	562.507647628515	975.912937487024	470.458844304564	565.874392743464	1112.491833760150	765.099457235586	360.180536416872	1061.044426514160	630.791966111305	289.782955017987	1173.337353818066	579.277471908794	341.319276850080	1202.547328537990	517.217944220887	338.236189213151	1191.512385820073	444.272223901120	331.504708551793	1131.871592917984	307.310596713239	293.916644744208	1233.536065017978	219.067538745965	341.318273429794	931.170863135773	389.598529840150	574.339073546176	843.904109221825	299.683087149924	638.539201767323	864.288463024071	200.189869628898	570.786719285752	706.878028480394	46.744185311251	537.994076557519	879.592207040858	96.596719997702	573.870328149630	789.739278036458	37.847797606676	612.165673202328	997.945893260535	40.482179663635	602.438671092619	1170.032617962445	39.650898931090	393.114345497065	1235.946107089183	44.894016541232	306.095597021983	1304.748173717486	124.342733239508	319.389702338327	1436.831654104429	97.883001375237	281.503625892719	801.416403664886	1126.839430423760	242.132404225763	707.222090375417	885.998828101236	248.977028279202	1258.994746758942	1137.512919378042	738.054445419063	1454.234893496197	1267.177652264915	648.835180043207	
72	36.616500000000	843.914062837290	993.786856758263	514.291964058999	987.506383970327	1421.526046183915	323.153259035618	1119.378085567275	1346.358939929715	459.364700568425	1072.035422490091	1417.640872536291	646.894713330580	1008.141617046235	1477.706817945446	479.451008329300	1078.326305600058	923.899848536593	604.741326933511	1036.233096118763	941.896117144535	332.172126593609	1061.442987116132	709.245090721752	579.093947418218	950.717342367678	621.818652829689	643.137300263438	1002.140879020301	552.977833012957	561.250989289693	975.042017762108	468.088730542368	564.537078159668	1114.799085807951	762.983855413879	358.593832687966	1061.331915078773	628.370708304117	290.300461550367	1173.353105109239	576.673242994597	342.115627767053	1201.287088472196	513.642087943970	340.250713136061	1189.677102617475	440.474671114951	333.379319729943	1128.212698224758	304.256833241074	296.226624461865	1228.105331010259	214.776384759752	344.719085752104	928.627574900695	388.090410800474	573.112356023429	839.473204345798	300.179982760464	637.556803500498	857.786729881122	199.998818530673	570.402557085969	697.852518231292	48.428592137460	538.355737522842	870.941040760594	96.806784744366	574.032933746114	780.726750848968	38.489855849782	612.302232388705	988.901488903969	39.811493412738	602.589799738623	1160.451987967989	38.214778645291	396.454561228046	1226.548713701524	42.029227759080	309.479808781068	1297.999559446085	118.555190615228	323.924690365296	1429.274309538869	87.694291395882	285.948447818573	800.711428064342	1126.961804907682	241.467243325702	704.992427510333	886.699674441521	249.168087530263	1262.452004283160	1139.240191618864	735.260688085620	1451.031091741152	1275.989515631416	644.147016830854	
73	36.628000000000	845.382754261333	992.899756695431	511.286241422388	988.492812452469	1420.515599530974	321.024865487374	1120.425180603700	1345.731245870246	457.404720019006	1072.569784469881	1416.930177885767	644.859495955733	1008.820462178825	1476.775011352732	477.365821968001	1079.735442484774	922.371825533520	602.832611895644	1038.738763726554	941.020165864913	330.248463237253	1062.241827499500	707.759095041848	577.672878479064	950.736471893894	620.848701417874	641.156372938791	1002.622734159696	551.280797231068	559.947360212169	974.655037001881	465.664241353209	563.256090493002	1117.255558448262	761.179149929349	357.105263839916	1062.127198170551	626.583641845152	290.334142399638	1173.662116768250	574.571328591938	342.875522986483	1200.273471128838	510.544404908008	342.060553411082	1188.121605435489	437.190160800267	334.856586956442	1124.990796318746	301.825934363962	297.557721201463	1222.767277815145	210.968582373035	347.431761834454	926.423817741420	386.664350975595	571.905294523037	835.285145440086	300.900504628140	636.557418941160	851.495077385400	200.035971765032	570.088993183208	688.888251127341	50.596755373938	538.787457903439	862.470842614068	97.116964408073	574.296682019938	771.760029041355	39.344921878483	612.489384108414	979.881096594045	39.200234447133	602.733272045084	1150.542267045976	37.264394189852	398.743603213217	1217.055684239208	39.668488476691	311.991614374186	1291.163933485484	113.213412184979	327.823146775364	1421.662130515463	77.900302805176	290.136476987350	800.954288183324	1126.547421722216	240.549417429443	704.189167200649	886.691310778908	249.005713937891	1265.204816708379	1140.420864639525	732.693414237837	1447.520190604754	1283.292195970918	639.824069885404	
74	36.639500000000	846.795403397871	992.225936503289	508.168527830209	989.707227296227	1419.664597044604	318.783971009598	1121.600187557664	1345.237522609902	455.423783426688	1073.178738411616	1416.372724556326	642.807671772912	1009.663549228737	1476.063861478655	475.175826472163	1081.105443613590	921.044643253085	600.824911972193	1041.216723346195	940.472992220101	328.283536785830	1063.210097310758	706.500617967148	576.132326435148	951.088142823189	620.012774952976	639.106002015058	1003.544041220537	549.752688672616	558.580390745558	974.858809666280	463.224571454129	562.081676406867	1119.791599153769	759.826374386101	355.733968534960	1063.488272850392	625.557271244346	289.809115999974	1174.309134146055	573.097423159392	343.468935077881	1199.583286323044	508.072759963420	343.475155521489	1186.917681905636	434.543553770633	335.838353107328	1122.300914422847	300.121891037488	297.863094052684	1217.636183683235	207.796238697786	349.379672483400	924.635530797038	385.357325217068	570.770683133228	831.415159642521	301.908440782209	635.578331222037	845.491780506529	200.357646603295	569.888651074741	680.030952651700	53.359273404345	539.303987099647	854.249081862759	97.536250518127	574.692722970403	762.863824712378	40.462575700387	612.734569172581	970.887628458318	38.669390444719	602.857680856147	1140.635418355701	36.781723084625	400.065711900195	1207.707375652581	37.873509396179	313.645311099678	1284.298136197265	108.585355282025	330.929232540941	1414.073726126948	69.094758293480	293.799938116781	802.170228743177	1125.638133819998	239.339767165939	704.879384259445	885.979980879862	248.447882459859	1267.198230313829	1141.013884454202	730.371932350240	1443.811176390404	1289.058340245814	635.888432847193	
75	36.651000000000	848.162263747749	991.814340803005	504.990778093959	991.120806603337	1419.051176776204	316.471383331330	1122.885284707055	1344.930032996743	453.437297411227	1073.883512192290	1416.025726696961	640.753921945081	1010.663130661862	1475.630769813512	472.915558618695	1082.418132300944	919.986901858902	598.681506733000	1043.602006987190	940.327030122648	326.239011494808	1064.371144457823	705.532385834348	574.423310302680	951.867233409024	619.338748090779	637.000940086605	1004.989760207823	548.444796590986	557.144476208543	975.777656524937	460.812159454882	561.078949289716	1122.343780520625	759.050609812472	354.467324897983	1065.429597049905	625.353952129200	288.711678752408	1175.308197293988	572.313901055126	343.773998331648	1199.254970807343	506.296556421945	344.357053002356	1186.078154569865	432.575881333022	336.294785452772	1120.119759348382	299.176950892638	297.213100234580	1212.706260511877	205.319362735024	350.581672870060	923.365316650784	384.200005143788	569.772772225409	827.960092979946	303.268615664512	634.659781606893	839.875850050612	201.018558882968	569.850285733325	671.347743360295	56.841269278952	539.922708964012	846.351118992692	98.071280771545	575.252989497946	754.073235014746	41.905335795262	613.044726430881	961.921975274693	38.233912180499	602.951855924436	1130.915272729546	36.691147994511	400.582803671937	1198.591749963004	36.637710054771	314.532101384610	1277.346933020810	104.832625439163	333.185241280091	1406.473169082692	61.702893070720	296.744184467684	804.362513862231	1124.304820956619	237.809815164796	707.127181175855	884.595772556816	247.456143366584	1268.370582252836	1140.997962770893	728.306339934455	1440.018064591696	1293.253776847093	632.360654557990	
